<?xml version="1.0" encoding="utf-8"?>
<svg title="ShootShoot" version="1.1" xmlns="http://www.w3.org/2000/svg" xmlns:xlink="http://www.w3.org/1999/xlink" x="0px" y="0px" viewBox="0 0 422.6 125.8" xml:space="preserve" class="logo logo" style="enable-background:new 0 0 422.6 125.8" data-v-33d3904a="" data-v-0cb6ffe4=""><g fill="#ffffff" class="logo__group" data-v-33d3904a=""><path d="M327.9,0C327.9,0,327.9,0,327.9,0c-9.6,0-17.3,7.8-17.3,17.3v91.1c0,9.6,7.8,17.3,17.3,17.3c9.6,0,17.3-7.8,17.3-17.3V17.3
        C345.2,7.8,337.5,0,327.9,0z M332.3,108.4c0,2.4-2,4.4-4.4,4.4c-2.4,0-4.4-2-4.4-4.4v-0.2h0V17.4c0-2.4,2-4.4,4.4-4.4
        s4.4,2,4.4,4.4v0.2h0V108.4z" data-v-33d3904a=""></path> <path d="M383,82.6c-3.1-3.1-7.5-5.1-12.2-5.1c-9.6,0-17.3,7.8-17.3,17.3v13.5c0,9.6,7.8,17.3,17.3,17.3c9.6,0,17.3-7.8,17.3-17.3
        V94.9C388,90.1,386.1,85.8,383,82.6z M375.1,99.9v8.4c0,2.4-2,4.4-4.4,4.4s-4.4-2-4.4-4.4v-8.4h0v-5c0-2.4,2-4.4,4.4-4.4
        s4.4,2,4.4,4.4L375.1,99.9L375.1,99.9z" data-v-33d3904a=""></path> <path d="M383,5.3c-3.1-3.1-7.5-5.1-12.2-5.1c-9.6,0-17.3,7.8-17.3,17.3v39.2c0,0.3,0,0.6,0,0.9c0.5,9.1,8,16.4,17.3,16.4
        c9.2,0,16.8-7.3,17.3-16.4c0-0.3,0-0.6,0-0.9V17.5C388,12.8,386.1,8.4,383,5.3z M375.1,47.7v9c0,2.4-2,4.4-4.4,4.4h0
        c-2.3,0-4.3-1.8-4.4-4.2V17.6c0-2.4,2-4.4,4.4-4.4s4.4,2,4.4,4.4L375.1,47.7L375.1,47.7z" data-v-33d3904a=""></path> <path d="M353.4,56.8c0,0.3,0,0.6,0,0.9h0V56.8z" data-v-33d3904a=""></path> <path d="M388,56.8v0.9h0C388,57.4,388,57.1,388,56.8z" data-v-33d3904a=""></path> <polygon points="422.6,0 422.6,13.2 415.2,13.2 415.2,125.8 402.3,125.8 402.3,13.2 394.9,13.2 394.9,0 	" data-v-33d3904a=""></polygon> <polygon points="280.5,125.7 280.5,125.8 267.6,125.8 267.6,125.8 	" data-v-33d3904a=""></polygon> <path d="M289.3,75v50.8h0v-51C289.3,74.8,289.3,74.9,289.3,75z" data-v-33d3904a=""></path> <path d="M103.4,0C103.4,0,103.4,0,103.4,0C93.8,0,86,7.8,86,17.3v91.1c0,9.6,7.8,17.3,17.3,17.3c9.6,0,17.3-7.8,17.3-17.3V17.3
        C120.7,7.8,112.9,0,103.4,0z M107.8,108.4c0,1.2-0.5,2.3-1.3,3.1c-0.8,0.8-1.9,1.3-3.1,1.3c-2.4,0-4.4-2-4.4-4.4V17.4
        c0-1.2,0.5-2.3,1.3-3.1c0.8-0.8,1.9-1.3,3.1-1.3c2.4,0,4.4,2,4.4,4.4v90.9h0V108.4z" data-v-33d3904a=""></path> <polygon points="198,0 198,12.2 190.6,12.2 190.6,125.8 177.7,125.8 177.7,12.2 170.3,12.2 170.3,0 	" data-v-33d3904a=""></polygon> <path d="M43,75c0-0.4,0-0.7,0-1v51.9h0V75z" data-v-33d3904a=""></path> <path d="M77.7,75C77.7,75,77.7,75,77.7,75v50.8H64.8v0h12.9V74.1C77.7,74.4,77.7,74.7,77.7,75z" data-v-33d3904a=""></path> <path d="M77.6,0v125.8H64.8V75c0-0.1,0-0.2,0-0.3c-0.1-2.3-2-4.1-4.4-4.1c-2.4,0-4.3,2-4.3,4.4v50.7h-0.1L43,125.8V0h12.9v58.2
        c1.4-0.4,2.8-0.6,4.4-0.6h0c1.5,0,3,0.2,4.4,0.5V0H77.6z" data-v-33d3904a=""></path> <polygon points="55.9,125.7 55.9,125.8 43,125.8 43,125.8 	" data-v-33d3904a=""></polygon> <path d="M64.8,75v50.8h0V74.7C64.7,74.8,64.8,74.9,64.8,75z" data-v-33d3904a=""></path> <path d="M146.2,0C146.2,0,146.2,0,146.2,0c-9.6,0-17.3,7.8-17.3,17.3v91.1c0,9.6,7.8,17.3,17.3,17.3c9.6,0,17.3-7.8,17.3-17.3V17.3
        C163.5,7.8,155.8,0,146.2,0z M150.6,17.5v90.9c0,2.4-2,4.4-4.4,4.4s-4.4-2-4.4-4.4v-0.1h0V17.4c0-2.4,2-4.4,4.4-4.4
        c2.4,0,4.4,2,4.4,4.4L150.6,17.5L150.6,17.5z" data-v-33d3904a=""></path> <path d="M207.8,59.8L207.8,59.8c3.4,0,6.1,2.8,6.1,6.1v0c0,3.4-2.8,6.1-6.1,6.1h0c-3.4,0-6.1-2.8-6.1-6.1v0
        C201.6,62.6,204.4,59.8,207.8,59.8z" data-v-33d3904a=""></path> <path d="M237.5,45.5c0-0.1,0-0.2,0-0.3h0C237.5,45.3,237.5,45.4,237.5,45.5z" data-v-33d3904a=""></path> <path d="M246.3,45.5V17.3c0-2.4-2-4.4-4.4-4.4s-4.4,2-4.4,4.4v27.6c0,0.1,0,0.2,0,0.3c0,0.1,0,0.2,0,0.3c0.1,2.5,1.1,4.9,2.8,6.7
        l16,17.5c1.8,2,2.8,4.6,2.8,7.3l0,4.9h0v26.6c0,0.3,0,0.5,0,0.8c-0.2,9.6-8.2,17.1-17.7,16.9c-9.6-0.2-17.1-8.2-16.9-17.7V81.9
        h12.9v26.6c0,2.4,2,4.4,4.4,4.4s4.4-2,4.4-4.4l-0.3-26.6h0v-0.2c0-2.7-1-5.3-2.8-7.2l-15.8-17.3c-1.8-2-2.8-4.6-2.8-7.3V17.3
        c0-0.3,0-0.5,0-0.8c0.2-9.6,8.2-17.1,17.7-16.9c9.6,0.2,17.1,8.2,16.9,17.7v28.2H246.3z" data-v-33d3904a=""></path> <path d="M21.7,45.5V17.3c0-2.4-2-4.4-4.4-4.4c-2.4,0-4.4,2-4.4,4.4v27.6c0,0.1,0,0.2,0,0.3c0,0.1,0,0.2,0,0.3
        c0.1,2.5,1.1,4.9,2.8,6.7l16,17.5c1.8,2,2.8,4.6,2.8,7.3v31.5c0,0.3,0,0.5,0,0.8c-0.2,9.6-8.2,17.1-17.7,16.9
        C7.3,126-0.2,118.1,0,108.5V81.9h12.9v26.6c0,2.4,2,4.4,4.4,4.4s4.4-2,4.4-4.4l-0.3-26.6h0v-0.2c0-2.7-1-5.3-2.8-7.2L2.8,57
        C1,55,0,52.4,0,49.8V17.3c0-0.3,0-0.5,0-0.8C0.2,6.9,8.2-0.6,17.7-0.4s17.1,8.2,16.9,17.7v28.2H21.7z" data-v-33d3904a=""></path> <path d="M13,45.5L13,45.5c0-0.1,0-0.2,0-0.3C13,45.3,13,45.4,13,45.5z" data-v-33d3904a=""></path> <path d="M302.2,0v125.8h-12.9V75c0-0.1,0-0.2,0-0.2c-0.1-2.3-2-4.2-4.4-4.2c-1.2,0-2.3,0.5-3.1,1.3c-0.8,0.8-1.3,1.9-1.3,3.1v50.7
        h0l-12.9,0.1V0h12.9v58.3c1.4-0.4,2.9-0.6,4.4-0.6c1.5,0,3,0.2,4.4,0.6V0H302.2z" data-v-33d3904a=""></path> <path d="M302.2,75v50.8h-12.9v0h12.9V74.1C302.2,74.4,302.2,74.7,302.2,75z" data-v-33d3904a=""></path></g></svg>
